<?xml version="1.0" encoding="utf-8"?>
<!-- Generator: Adobe Illustrator 19.2.1, SVG Export Plug-In . SVG Version: 6.00 Build 0)  -->
<svg version="1.1" xmlns="http://www.w3.org/2000/svg" xmlns:xlink="http://www.w3.org/1999/xlink" x="0px" y="0px"
	 viewBox="0 0 300 300" style="enable-background:new 0 0 300 300;" xml:space="preserve">
<style type="text/css">
	.st0{opacity:0.97;fill:#6B7A96;stroke:#261E12;stroke-miterlimit:10;}
	.st1{opacity:0.55;}
	.st2{fill:#29ABE2;stroke:#174268;stroke-miterlimit:10;}
	.st3{fill:#FF931E;stroke:#8C3D07;stroke-miterlimit:10;}
	.st4{fill:#1B202B;stroke:#261E12;stroke-miterlimit:10;}
	.st5{font-family:'GothicI';}
	.st6{font-size:214.5924px;}
</style>
<g id="Layer_5">
	<circle class="st0" cx="156.3" cy="150" r="109.3"/>
</g>
<g id="Layer_1" class="st1">
	<path class="st2" d="M104.1,54c0,0-93.4,53-42.8,148.1c45.7,86,151.6,59.7,179.3,17.9c20.8-31.4-7.1-72.8-48.1-76.4
		s-38.8-22.5-35.2-50.6c1.7-13.1,26.2-74.8,47.5-82.7C203.1,10.2,104.1,54,104.1,54z"/>
</g>
<g id="Layer_2" class="st1">
	<path class="st3" d="M194,143.8c-9.5,1.9-57.5-13.3-23.6-23.5c7.5-2.3,2.2-18.8-0.8-25.3s10.5-16.8,10.5-16.8s-10.4,9-2.8,24.5
		c0.3,0.4,4.2,2.5,5.7,8.5c0.7,0.8-5.5-17.3,2.4-20.5c7.8-3.2,13.5-13.4,14-18.1c0-0.4,0.2-0.6,0.4-0.7c1.3-0.7,9,11,8.6,23.2
		c-0.1,5.3-1.7,7.5-1.3,15c0,0.3,0.2,5.8,1.2,8.8c2.7,8.7,15.7,12.3,16.1,11.7c0.3-0.5-7.4-3.1-9-9.5c-1.2-4.9,4-8.2,4.3-13.2
		c1.1-21,0.3-30.8-1.1-35.7c-4.3-14.8-22.6-19.7-26.1-25.2c-3.5-5.5,40,19.1,49.5,35.1c9.1,15.4,17,17.3,23.7,55.1
		c3.8,51-21.7,78.4-21.7,78.4c1.1-3.1,8.1-24.3-4.1-45.1C225,145.1,195.8,143.8,194,143.8z"/>
	<path class="st3" d="M160.8,96.3c0,0,3.1-17.2,14.4-20.5c3.3-1,4.9,1.3,10.3,0.7c1.3-0.2,10.7-1.3,14.3-8.4
		c2.5-5.1,1.5-11.8-0.8-12.5c-2.8-0.9-6.8,8.5-10.5,7.5c-1.2-0.3-1.8-1.6-3-4.3c-1.7-3.6-1.8-6.8-1.8-8c0-3.1,0.9-5.5,1.3-6.8
		c5.5-15.4,13.7-30.2,13.7-30.2c5.4-9.1-18.9,23.4-20.4,27.9c-1.7,4.9-19.6,40.2-19.9,46.6C158.1,95.4,153.2,103.7,160.8,96.3z"/>
</g>
<g id="Layer_3" class="st1">
</g>
<g id="Layer_4">
	<text transform="matrix(1 0 0 1 52.533 228.1738)" class="st4 st5 st6">S</text>
</g>
</svg>
