<svg xmlns="http://www.w3.org/2000/svg" viewBox="0 0 221.54 215.5">
  <defs>
    <style>
      .a {
        fill: #6e08ff;
      }

      .b {
        fill: none;
      }

      .b, .e {
        stroke: #000;
        stroke-miterlimit: 10;
      }

      .c {
        fill: #722626;
      }

      .d {
        fill: #491d1d;
      }

      .e {
        fill: #662d91;
      }
    </style>
  </defs>
  <title>logo1</title>
  <g>
    <circle class="a" cx="115.79" cy="109.75" r="105.25"/>
    <circle class="b" cx="115.79" cy="109.75" r="105.25"/>
  </g>
  <path class="c" d="M34.4,149.07C20.44,189.18,223,251.81,223,251.81V41S53.47,94.3,34.4,149.07Z" transform="translate(-33.71 -41)"/>
  <path class="d" d="M35.23,156.62C35.23,178.56,120,266,223,251.81" transform="translate(-33.71 -41)"/>
  <path class="e" d="M134.5,98.91A20,20,0,0,1,136,96.13q1.74-3.13,2.9-5.33,19.65-6.2,36.75-6.2A45.19,45.19,0,0,1,186,85.75a16.38,16.38,0,0,1,7.65,3.88,17.6,17.6,0,0,1,4.52,8,73.1,73.1,0,0,1,2.61,12.93L202.15,121,206,148a206.7,206.7,0,0,0,4.87,25.62q-18.43,5.39-26.14,9,0-6.55-1.86-35.59-10.84-.7-14.72-0.7-4.17.17-11,.55l-12.72.72q-22,24.29-35.54,32.17t-25.57,7.94q-11.59,0-19-5.8t-7.48-12q0-7.07,7.83-15.77T85.16,139q12.7-6.44,30.2-6.43,4.17,0,8,.23t8.58,0.75q4.78,0.52,9.71,1.22l11.65-16.87q3.42-5,13.68-22.78-6.84.17-15.16,1.16T134.5,98.91Zm-48.7,51q-4.52,6.44-4.52,12.81,0,6.67,4.46,9.74a18.25,18.25,0,0,0,10.61,3.07,92.77,92.77,0,0,0,12.87-1.22q0.29-.52,6.78-7.42,5.91-6.26,17.91-20.06Q105.28,147.84,85.8,149.93ZM152,136.25q4.46,0.52,12.58,2t17.62,3.45A362.63,362.63,0,0,0,175,102.45Q168.64,114,152,136.25Z" transform="translate(-33.71 -41)"/>
</svg>
